<svg xmlns="http://www.w3.org/2000/svg" data-name="Layer 1" viewBox="0 0 128 160" x="0px" y="0px"><defs><style>.cls-1{fill:none;stroke:#000;stroke-linecap:round;stroke-linejoin:round;stroke-width:8px;}</style></defs><title>Artboard 53</title><path class="cls-1" d="M77,100c0-19,9-24,9-24,12.5-12.5,13.12-32.13.63-44.63a32,32,0,0,0-45.25,0C28.88,43.87,29.5,63.5,42,76c0,0,9,5,9,24Z"/><line class="cls-1" x1="70" y1="124" x2="58" y2="124"/><line class="cls-1" x1="74" y1="112" x2="54" y2="112"/><line class="cls-1" x1="63" y1="4" x2="63" y2="10"/><line class="cls-1" x1="14" y1="53" x2="20" y2="53"/><line class="cls-1" x1="108" y1="53" x2="112" y2="53"/><line class="cls-1" x1="28.35" y1="87.65" x2="32.59" y2="83.41"/><line class="cls-1" x1="94.82" y1="21.18" x2="97.65" y2="18.35"/><line class="cls-1" x1="28.35" y1="18.35" x2="32.59" y2="22.59"/><line class="cls-1" x1="94.82" y1="84.82" x2="97.65" y2="87.65"/></svg>