<?xml version="1.0" encoding="UTF-8" standalone="no"?><svg xmlns:dc="http://purl.org/dc/elements/1.1/" xmlns:cc="http://creativecommons.org/ns#" xmlns:rdf="http://www.w3.org/1999/02/22-rdf-syntax-ns#" xmlns:svg="http://www.w3.org/2000/svg" xmlns="http://www.w3.org/2000/svg" height="92.313004" width="61.259998" id="svg14" xml:space="preserve" enable-background="new 0 0 100 100" viewBox="0 0 61.259998 92.313004" y="0px" x="0px" version="1.1"><metadata id="metadata20"><rdf:RDF><cc:Work rdf:about=""><dc:format>image/svg+xml</dc:format><dc:type rdf:resource="http://purl.org/dc/dcmitype/StillImage" /><dc:title></dc:title></cc:Work></rdf:RDF></metadata><defs id="defs18" /><path d="m 57.344,51.777 c -0.009,-0.041 -0.016,-0.083 -0.027,-0.124 -0.044,-0.148 -0.101,-0.296 -0.182,-0.437 -0.081,-0.141 -0.181,-0.264 -0.288,-0.377 -0.029,-0.03 -0.062,-0.056 -0.092,-0.085 -0.092,-0.084 -0.188,-0.159 -0.293,-0.225 -0.021,-0.014 -0.037,-0.033 -0.06,-0.046 L 40.069,41.056 c 2.219,-2.43 4.693,-6.106 4.693,-10.428 0,-7.495 -5.857,-13.698 -13.315,-14.121 -0.261,-0.018 -0.526,-0.025 -0.815,-0.025 -0.003,0 -0.006,0 -0.008,0 0,0 -0.484,0.006 -0.712,0.018 -7.521,0.387 -13.413,6.593 -13.413,14.129 0,4.548 2.738,8.383 5.036,10.8 0.014,0.015 0.028,0.029 0.043,0.043 L 5.967,50.485 c -0.021,0.013 -0.037,0.031 -0.059,0.045 -0.104,0.065 -0.202,0.142 -0.295,0.227 -0.03,0.028 -0.062,0.054 -0.091,0.084 -0.107,0.113 -0.207,0.236 -0.288,0.377 -0.081,0.141 -0.138,0.288 -0.182,0.438 -0.012,0.04 -0.019,0.081 -0.027,0.122 -0.027,0.121 -0.044,0.241 -0.049,0.363 -0.001,0.026 -0.01,0.051 -0.01,0.077 v 24.113 c 0,0.715 0.381,1.375 1,1.732 l 24.217,13.982 c 0.024,0.014 0.052,0.019 0.076,0.031 0.105,0.056 0.215,0.101 0.33,0.137 0.042,0.013 0.083,0.028 0.126,0.039 0.15,0.036 0.306,0.061 0.468,0.061 0.162,0 0.317,-0.024 0.468,-0.061 0.043,-0.011 0.084,-0.026 0.126,-0.039 0.115,-0.036 0.225,-0.081 0.33,-0.137 0.024,-0.013 0.052,-0.018 0.076,-0.031 L 56.402,78.063 c 0.619,-0.357 1,-1.018 1,-1.732 V 52.217 c 0,-0.027 -0.009,-0.052 -0.011,-0.078 -0.003,-0.122 -0.02,-0.242 -0.047,-0.362 z M 31.184,63.888 10.967,52.217 22.719,45.433 v 5.826 c 0,2.536 2.062,4.599 4.599,4.599 h 6.625 c 2.536,0 4.599,-2.062 4.599,-4.599 v -6.465 l 12.86,7.423 z m -4.465,-15.33 h 7.822 v 2.7 c 0,0.33 -0.269,0.599 -0.599,0.599 h -6.625 c -0.33,0 -0.599,-0.269 -0.599,-0.599 v -2.7 z m -6.22,-17.929 c 0,-5.405 4.225,-9.857 9.613,-10.134 0.173,-0.009 0.543,-0.013 0.534,-0.013 0.18,0 0.359,0.004 0.555,0.018 5.361,0.304 9.562,4.753 9.562,10.129 0,3.369 -2.43,6.45 -3.903,8.009 -0.843,0.806 -1.449,1.647 -1.802,2.503 -0.462,1.118 -0.519,2.399 -0.517,3.387 v 0.031 h -7.822 v -0.023 c 0.004,-1.053 -0.08,-1.883 -0.26,-2.599 -0.024,-0.282 -0.104,-0.563 -0.255,-0.825 -0.012,-0.021 -0.029,-0.037 -0.042,-0.058 -0.354,-0.818 -0.942,-1.63 -1.761,-2.415 -1.472,-1.558 -3.902,-4.638 -3.902,-8.01 z M 8.967,55.681 29.184,67.353 V 86.848 L 8.967,75.176 Z M 33.184,86.848 V 67.353 L 53.403,55.68 v 19.496 z" /><path d="m 30.63,12.609 c 1.104,0 2,-0.896 2,-2 V 2 c 0,-1.104 -0.896,-2 -2,-2 -1.104,0 -2,0.896 -2,2 v 8.609 c 0,1.105 0.896,2 2,2 z" /><path d="m 15.06,17.888 c 0.391,0.391 0.902,0.586 1.414,0.586 0.512,0 1.023,-0.195 1.414,-0.586 0.781,-0.78 0.781,-2.047 0,-2.828 L 12.175,9.345 c -0.781,-0.781 -2.047,-0.781 -2.828,0 -0.781,0.78 -0.781,2.047 0,2.828 z" /><path d="m 12.611,30.629 c 0,-1.104 -0.896,-2 -2,-2 H 2 c -1.104,0 -2,0.896 -2,2 0,1.104 0.896,2 2,2 h 8.611 c 1.105,0 2,-0.896 2,-2 z" /><path d="m 59.26,28.629 h -8.611 c -1.104,0 -2,0.896 -2,2 0,1.104 0.896,2 2,2 h 8.611 c 1.104,0 2,-0.896 2,-2 0,-1.104 -0.896,-2 -2,-2 z" /><path d="m 44.786,18.472 c 0.512,0 1.023,-0.195 1.414,-0.586 l 5.713,-5.713 c 0.781,-0.781 0.781,-2.047 0,-2.828 -0.781,-0.781 -2.047,-0.781 -2.828,0 l -5.713,5.713 c -0.781,0.781 -0.781,2.047 0,2.828 0.391,0.391 0.903,0.586 1.414,0.586 z" /></svg>