<?xml version="1.0" encoding="UTF-8"?>
<svg version="1.1" viewBox="0 0 73.534 90" xml:space="preserve" xmlns="http://www.w3.org/2000/svg" xmlns:cc="http://creativecommons.org/ns#" xmlns:dc="http://purl.org/dc/elements/1.1/" xmlns:rdf="http://www.w3.org/1999/02/22-rdf-syntax-ns#"><metadata><rdf:RDF><cc:Work rdf:about=""><dc:format>image/svg+xml</dc:format><dc:type rdf:resource="http://purl.org/dc/dcmitype/StillImage"/><dc:title/></cc:Work></rdf:RDF></metadata><g transform="translate(-13.233,-5)"><path d="m59.632 75.107v-2.822c0-4.96 2.015-9.725 5.529-13.073 4.396-4.189 6.817-9.839 6.817-15.909 0-12.119-9.859-21.978-21.978-21.978-0.827 0-1.667 0.046-2.496 0.138-10.5 1.161-18.86 10.013-19.447 20.591-0.354 6.379 2.066 12.583 6.64 17.02 3.604 3.496 5.671 8.31 5.671 13.208v2.824c0 2.999 2.439 5.438 5.438 5.438h8.387c2.999 2e-3 5.439-2.438 5.439-5.437zm-4 0c0 0.793-0.646 1.438-1.438 1.438h-8.387c-0.793 0-1.438-0.646-1.438-1.438v-2.824c0-5.973-2.51-11.833-6.886-16.079-3.741-3.629-5.721-8.706-5.431-13.927 0.48-8.65 7.312-15.888 15.893-16.837 0.684-0.076 1.376-0.114 2.057-0.114 9.913 0 17.978 8.064 17.978 17.978 0 4.965-1.98 9.586-5.576 13.013-4.302 4.099-6.77 9.919-6.77 15.969v2.821z"/><path d="m56.509 82.521h-13.018c-0.829 0-1.5 0.671-1.5 1.5s0.671 1.5 1.5 1.5h13.019c0.829 0 1.5-0.671 1.5-1.5s-0.672-1.5-1.501-1.5z"/><path d="m58.009 88.761c0-0.829-0.671-1.5-1.5-1.5h-13.018c-0.829 0-1.5 0.671-1.5 1.5s0.671 1.5 1.5 1.5h13.019c0.828 0 1.499-0.672 1.499-1.5z"/><path d="m14.733 43.267h8.643c0.829 0 1.5-0.671 1.5-1.5s-0.671-1.5-1.5-1.5h-8.643c-0.829 0-1.5 0.671-1.5 1.5s0.671 1.5 1.5 1.5z"/><path d="m86.767 41.767c0-0.829-0.671-1.5-1.5-1.5h-8.643c-0.829 0-1.5 0.671-1.5 1.5s0.671 1.5 1.5 1.5h8.643c0.829 0 1.5-0.671 1.5-1.5z"/><path d="m48.5 6.5v8.643c0 0.829 0.671 1.5 1.5 1.5s1.5-0.671 1.5-1.5v-8.643c0-0.829-0.671-1.5-1.5-1.5s-1.5 0.671-1.5 1.5z"/><path d="m73.877 15.769-6.111 6.111c-0.586 0.585-0.586 1.536 0 2.121 0.293 0.293 0.677 0.439 1.061 0.439s0.768-0.146 1.061-0.439l6.111-6.111c0.586-0.585 0.586-1.536 0-2.121-0.587-0.586-1.536-0.586-2.122 0z"/><path d="m32.234 59.533c-0.586-0.586-1.535-0.586-2.121 0l-6.111 6.111c-0.586 0.585-0.586 1.535 0 2.121 0.293 0.293 0.677 0.439 1.061 0.439s0.768-0.146 1.061-0.439l6.111-6.111c0.585-0.585 0.585-1.535-1e-3 -2.121z"/><path d="m30.113 24.001c0.293 0.293 0.677 0.439 1.061 0.439s0.768-0.146 1.061-0.439c0.586-0.585 0.586-1.536 0-2.121l-6.111-6.111c-0.586-0.586-1.535-0.586-2.121 0-0.586 0.585-0.586 1.536 0 2.121z"/><path d="m73.877 67.765c0.293 0.293 0.677 0.439 1.061 0.439s0.768-0.146 1.061-0.439c0.586-0.586 0.586-1.536 0-2.121l-6.111-6.111c-0.586-0.586-1.535-0.586-2.121 0s-0.586 1.536 0 2.121z"/><path d="m54.754 93.5c0-0.829-0.671-1.5-1.5-1.5h-6.509c-0.829 0-1.5 0.671-1.5 1.5s0.671 1.5 1.5 1.5h6.509c0.829 0 1.5-0.671 1.5-1.5z"/></g></svg>