<svg xmlns:dc="http://purl.org/dc/elements/1.1/" xmlns:cc="http://creativecommons.org/ns#" xmlns:rdf="http://www.w3.org/1999/02/22-rdf-syntax-ns#" xmlns:svg="http://www.w3.org/2000/svg" xmlns="http://www.w3.org/2000/svg" xmlns:sodipodi="http://sodipodi.sourceforge.net/DTD/sodipodi-0.dtd" xmlns:inkscape="http://www.inkscape.org/namespaces/inkscape" version="1.1" x="0px" y="0px" viewBox="0 0 100 125"><g transform="translate(0,-952.36218)"><path style="font-size:medium;font-style:normal;font-variant:normal;font-weight:normal;font-stretch:normal;text-indent:0;text-align:start;text-decoration:none;line-height:normal;letter-spacing:normal;word-spacing:normal;text-transform:none;direction:ltr;block-progression:tb;writing-mode:lr-tb;text-anchor:start;baseline-shift:baseline;opacity:1;color:#000000;fill:#ff005a;fill-opacity:1;stroke:none;stroke-width:3.99999905000000000;marker:none;visibility:visible;display:inline;overflow:visible;enable-background:accumulate;font-family:Sans;-inkscape-font-specification:Sans" d="M 41.6875 6 A 2.0001995 2.0001995 0 0 0 40.03125 7.21875 L 37.96875 12 L 35 12 A 2.0001995 2.0001995 0 0 0 33 14 L 33 17 L 19 17 A 2.0001995 2.0001995 0 0 0 18.8125 17 A 2.0001995 2.0001995 0 0 0 17 19 L 17 92 A 2.0001995 2.0001995 0 0 0 19 94 L 81 94 A 2.0001995 2.0001995 0 0 0 83 92 L 83 19 A 2.0001995 2.0001995 0 0 0 81 17 L 67 17 L 67 14 A 2.0001995 2.0001995 0 0 0 65 12 L 62.03125 12 L 59.96875 7.21875 A 2.0001995 2.0001995 0 0 0 58.125 6 L 41.875 6 A 2.0001995 2.0001995 0 0 0 41.6875 6 z M 43.1875 10 L 56.8125 10 L 58.875 14.78125 A 2.0001995 2.0001995 0 0 0 60.71875 16 L 63 16 L 63 22 L 37 22 L 37 16 L 39.28125 16 A 2.0001995 2.0001995 0 0 0 41.125 14.78125 L 43.1875 10 z M 21 21 L 33 21 L 33 24 A 2.0001995 2.0001995 0 0 0 35 26 L 65 26 A 2.0001995 2.0001995 0 0 0 67 24 L 67 21 L 79 21 L 79 90 L 21 90 L 21 21 z M 30.8125 39 A 2.0021961 2.0021961 0 1 0 31 43 L 69 43 A 2.0001995 2.0001995 0 1 0 69 39 L 31 39 A 2.0001995 2.0001995 0 0 0 30.8125 39 z M 30.8125 56 A 2.0021961 2.0021961 0 1 0 31 60 L 69 60 A 2.0001995 2.0001995 0 1 0 69 56 L 31 56 A 2.0001995 2.0001995 0 0 0 30.8125 56 z M 30.8125 73 A 2.0021961 2.0021961 0 1 0 31 77 L 69 77 A 2.0001995 2.0001995 0 1 0 69 73 L 31 73 A 2.0001995 2.0001995 0 0 0 30.8125 73 z " transform="translate(0,952.36218)"/></g></svg>