<svg xmlns="http://www.w3.org/2000/svg" data-name="Camada 1" viewBox="0 0 90 88.7875" x="0px" y="0px"><title>icones</title><path d="M86.25,22.89H54.9V3.75A3.75,3.75,0,0,0,51.15,0H3.75A3.75,3.75,0,0,0,0,3.75V35.19a3.75,3.75,0,0,0,3.75,3.75H5.94v7.75A1.46,1.46,0,0,0,6.84,48a1.58,1.58,0,0,0,.55.11,1.47,1.47,0,0,0,1-.44l8.62-8.77h18V58.07a3.76,3.76,0,0,0,3.76,3.76H72.94l8.62,8.77a1.48,1.48,0,0,0,1,.43,1.78,1.78,0,0,0,.55-.1,1.46,1.46,0,0,0,.9-1.35V61.83h2.2A3.75,3.75,0,0,0,90,58.07V26.64A3.75,3.75,0,0,0,86.25,22.89ZM35.09,26.64V36H16.44a1.42,1.42,0,0,0-1,.43L8.85,43.14V37.49A1.45,1.45,0,0,0,7.39,36H3.75a.85.85,0,0,1-.85-.85V3.75a.85.85,0,0,1,.85-.85h47.4a.85.85,0,0,1,.85.85V22.89H38.85A3.75,3.75,0,0,0,35.09,26.64ZM52,25.79v9.4a.85.85,0,0,1-.85.85H38v-9.4a.86.86,0,0,1,.86-.85ZM87.1,58.07a.86.86,0,0,1-.85.86H82.6a1.44,1.44,0,0,0-1.45,1.45V66l-6.57-6.67a1.4,1.4,0,0,0-1-.43H38.85a.86.86,0,0,1-.86-.86V38.94H51.15a3.75,3.75,0,0,0,3.75-3.75v-9.4H86.25a.86.86,0,0,1,.85.85Z"/></svg>