<svg xmlns:dc="http://purl.org/dc/elements/1.1/" xmlns:cc="http://creativecommons.org/ns#" xmlns:rdf="http://www.w3.org/1999/02/22-rdf-syntax-ns#" xmlns:svg="http://www.w3.org/2000/svg" xmlns="http://www.w3.org/2000/svg" xmlns:sodipodi="http://sodipodi.sourceforge.net/DTD/sodipodi-0.dtd" xmlns:inkscape="http://www.inkscape.org/namespaces/inkscape" version="1.1" x="0px" y="0px" viewBox="0 0 100 125"><g transform="translate(0,-952.36218)"><path style="font-size:medium;font-style:normal;font-variant:normal;font-weight:normal;font-stretch:normal;text-indent:0;text-align:start;text-decoration:none;line-height:normal;letter-spacing:normal;word-spacing:normal;text-transform:none;direction:ltr;block-progression:tb;writing-mode:lr-tb;text-anchor:start;baseline-shift:baseline;opacity:1;color:#000000;fill:#000000;fill-opacity:1;stroke:none;stroke-width:6;marker:none;visibility:visible;display:inline;overflow:visible;enable-background:accumulate;font-family:Sans;-inkscape-font-specification:Sans" d="M 72.4375 7 A 3.0003 3.0003 0 0 0 70.65625 7.875 L 9.375 69.125 A 3.0003 3.0003 0 0 0 8.5 71.03125 L 7 89.75 A 3.0003 3.0003 0 0 0 10.25 92.96875 L 28.96875 91.46875 A 3.0003 3.0003 0 0 0 30.84375 90.625 L 92.125 29.34375 A 3.0003 3.0003 0 0 0 92.125 25.09375 L 74.875 7.875 A 3.0003 3.0003 0 0 0 72.4375 7 z M 72.75 14.21875 L 85.75 27.21875 L 80.15625 32.8125 L 67.15625 19.8125 L 72.75 14.21875 z M 62.9375 24.0625 L 67.3125 28.4375 L 20.84375 74.90625 L 16.46875 70.53125 L 62.9375 24.0625 z M 71.5625 32.6875 L 75.90625 37.0625 L 29.4375 83.5 L 25.09375 79.15625 L 71.5625 32.6875 z M 14.09375 76.65625 L 23.34375 85.90625 L 13.28125 86.71875 L 14.09375 76.65625 z " transform="translate(0,952.36218)"/></g></svg>